<svg xmlns="http://www.w3.org/2000/svg" width="512" height="512" viewBox="0 0 512 512" fill="none">
  <defs>
    <linearGradient id="g" x1="96" y1="96" x2="416" y2="416" gradientUnits="userSpaceOnUse">
      <stop offset="0" stop-color="#00E5FF"/>
      <stop offset="1" stop-color="#7CFF00"/>
    </linearGradient>
    <radialGradient id="bg" cx="0" cy="0" r="1" gradientUnits="userSpaceOnUse" gradientTransform="translate(256 200) rotate(90) scale(312)">
      <stop offset="0" stop-color="#0B1220"/>
      <stop offset="1" stop-color="#05060A"/>
    </radialGradient>
  </defs>

  <!-- Background -->
  <rect x="32" y="32" width="448" height="448" rx="112" fill="url(#bg)"/>

  <!-- Grok-inspired "g" spiral mark (original artwork, not a copied logo) -->
  <path
    d="M324 150c-22-16-51-20-80-10-42 14-72 57-70 104 2 57 51 106 110 109 49 2 93-26 109-69 7-19 8-40 2-58-6-18-19-32-36-40-18-8-39-8-57-1-16 6-28 18-32 34-4 14-1 29 8 40 11 13 30 17 46 10"
    stroke="url(#g)"
    stroke-width="32"
    stroke-linecap="round"
    stroke-linejoin="round"
  />
  <path
    d="M256 386c-74 0-134-60-134-134s60-134 134-134c34 0 65 12 89 34"
    stroke="url(#g)"
    stroke-opacity="0.35"
    stroke-width="18"
    stroke-linecap="round"
  />

  <!-- Subtle highlight -->
  <path
    d="M152 150c24-30 62-50 104-50 18 0 35 3 51 9"
    stroke="#FFFFFF"
    stroke-opacity="0.10"
    stroke-width="12"
    stroke-linecap="round"
  />
</svg>
