<svg xmlns="http://www.w3.org/2000/svg" width="512" height="512" viewBox="0 0 512 512" fill="none">
  <defs>
    <linearGradient id="g" x1="96" y1="96" x2="416" y2="416" gradientUnits="userSpaceOnUse">
      <stop offset="0" stop-color="#00E5FF"/>
      <stop offset="1" stop-color="#7CFF00"/>
    </linearGradient>
    <radialGradient id="bg" cx="0" cy="0" r="1" gradientUnits="userSpaceOnUse" gradientTransform="translate(256 200) rotate(90) scale(312)">
      <stop offset="0" stop-color="#0B1220"/>
      <stop offset="1" stop-color="#05060A"/>
    </radialGradient>
  </defs>

  <!-- Apple prefers generous padding -->
  <rect x="44" y="44" width="424" height="424" rx="96" fill="url(#bg)"/>

  <path
    d="M316 164c-19-14-44-18-69-9-36 12-63 49-61 91 2 50 44 93 96 96 43 2 82-23 96-61 6-17 7-35 2-51-5-16-16-28-31-35-16-7-34-7-49-1-14 5-24 16-28 29-3 12-1 25 7 34 10 11 26 15 40 8"
    stroke="url(#g)"
    stroke-width="30"
    stroke-linecap="round"
    stroke-linejoin="round"
  />
  <path
    d="M256 370c-66 0-120-54-120-120s54-120 120-120c31 0 58 11 80 31"
    stroke="url(#g)"
    stroke-opacity="0.35"
    stroke-width="16"
    stroke-linecap="round"
  />
</svg>
